HIERARCHY
ROOT Hips
{
	OFFSET 0.000000 0.000000 0.000000 
	CHANNELS 6 Xposition Yposition Zposition Zrotation Xrotation Yrotation
	JOINT Spine
	{
		OFFSET -0.000000 8.285670 0.000000 
		CHANNELS 3 Zrotation Xrotation Yrotation
		JOINT Spine1
		{
			OFFSET -0.000000 20.280901 0.000000 
			CHANNELS 3 Zrotation Xrotation Yrotation
			JOINT Neck
			{
				OFFSET -0.000000 22.301800 0.000000 
				CHANNELS 3 Zrotation Xrotation Yrotation
				JOINT Head
				{
					OFFSET -0.000000 15.661900 2.020890 
					CHANNELS 3 Zrotation Xrotation Yrotation
					End Site
					{
						OFFSET -0.000000 20.208887 0.000000 
					}
				}
			}
			JOINT LeftShoulder
			{
				OFFSET 3.887530 15.503099 -0.416373 
				CHANNELS 3 Zrotation Xrotation Yrotation
				JOINT LeftArm
				{
					OFFSET 20.767099 0.000000 0.000000 
					CHANNELS 3 Zrotation Xrotation Yrotation
					JOINT LeftForeArm
					{
						OFFSET 26.608500 0.000000 0.000000 
						CHANNELS 3 Zrotation Xrotation Yrotation
						JOINT LeftHand
						{
							OFFSET 25.563202 0.000000 0.000000 
							CHANNELS 3 Zrotation Xrotation Yrotation
							End Site
							{
								OFFSET 15.156667 0.000000 0.000000 
							}
						}
					}
				}
			}
			JOINT RightShoulder
			{
				OFFSET -4.190880 15.503099 -0.416373 
				CHANNELS 3 Zrotation Xrotation Yrotation
				JOINT RightArm
				{
					OFFSET -20.767099 0.000000 0.000000 
					CHANNELS 3 Zrotation Xrotation Yrotation
					JOINT RightForeArm
					{
						OFFSET -26.608500 0.000000 0.000000 
						CHANNELS 3 Zrotation Xrotation Yrotation
						JOINT RightHand
						{
							OFFSET -25.563202 0.000000 0.000000 
							CHANNELS 3 Zrotation Xrotation Yrotation
							End Site
							{
								OFFSET -15.156667 0.000000 0.000000 
							}
						}
					}
				}
			}
		}
	}
	JOINT LeftUpLeg
	{
		OFFSET 10.104500 0.000000 0.000000 
		CHANNELS 3 Zrotation Xrotation Yrotation
		JOINT LeftLeg
		{
			OFFSET -0.000000 -50.743301 0.000000 
			CHANNELS 3 Zrotation Xrotation Yrotation
			JOINT LeftFoot
			{
				OFFSET -0.000000 -35.579197 0.000000 
				CHANNELS 3 Zrotation Xrotation Yrotation
				JOINT LeftToeBase
				{
					OFFSET -0.000000 -6.567910 15.156700 
					CHANNELS 3 Zrotation Xrotation Yrotation
					End Site
					{
						OFFSET -0.000000 0.000000 4.041778 
					}
				}
			}
		}
	}
	JOINT RightUpLeg
	{
		OFFSET -10.104500 0.000000 0.000000 
		CHANNELS 3 Zrotation Xrotation Yrotation
		JOINT RightLeg
		{
			OFFSET -0.000000 -50.743301 0.000000 
			CHANNELS 3 Zrotation Xrotation Yrotation
			JOINT RightFoot
			{
				OFFSET -0.000000 -35.579197 0.000000 
				CHANNELS 3 Zrotation Xrotation Yrotation
				JOINT RightToeBase
				{
					OFFSET -0.000000 -6.567910 15.156700 
					CHANNELS 3 Zrotation Xrotation Yrotation
					End Site
					{
						OFFSET -0.000000 0.000000 4.041778 
					}
				}
			}
		}
	}
}
MOTION
Frames: 6
Frame Time: 0.010000
37.243080 83.365364 5.251822 -0.812964 6.165065 2.231763 -4.542979 -2.658802 -3.245412 9.353360 0.739792 -1.108885 -3.844125 11.895579 -4.877011 7.468131 -24.437355 -5.281949 -3.844996 5.348098 0.392225 -75.363777 24.029325 -13.343479 7.729716 2.585516 -14.455637 -26.875019 0.981209 10.794871 -9.645035 3.273467 -3.002520 66.864861 19.049053 20.115135 -4.785737 2.296432 5.235633 31.340652 1.418860 -3.908521 20.073009 -23.648989 -5.111899 -2.196118 50.548653 -31.320534 10.437980 -34.148952 43.690029 0.000000 0.000000 0.000000 -27.927912 -13.189933 -14.039246 -0.413949 34.182911 -2.948025 -2.221576 -19.195168 4.128136 0.000000 0.000000 0.000000 
38.303310 83.522072 5.275019 -1.110188 6.225023 2.315469 -4.442101 -2.617783 -3.293342 9.529832 0.681328 -1.122323 -3.741447 11.915517 -4.962788 7.462504 -24.489094 -5.343554 -3.763397 5.292764 0.288580 -75.517792 24.236546 -13.367515 7.598482 2.705684 -14.357378 -26.797564 1.093657 10.762653 -9.585894 3.263010 -2.989913 66.808983 18.777346 20.036556 -4.905020 2.235064 5.249941 31.349764 1.382130 -3.841203 19.681431 -23.915522 -4.914812 -1.925168 51.109665 -31.847399 11.173561 -34.275070 43.936340 0.000000 0.000000 0.000000 -28.301712 -12.745736 -13.846114 -0.682797 33.090858 -2.818494 15.557678 -13.712705 2.800876 0.000000 0.000000 0.000000 
39.348526 83.695328 5.294088 -1.411463 6.280106 2.390098 -4.339727 -2.578362 -3.331054 9.705187 0.628695 -1.132604 -3.644525 11.939936 -5.048180 7.459502 -24.534042 -5.406527 -3.679662 5.232870 0.180164 -75.659096 24.472021 -13.392011 7.480562 2.813337 -14.260466 -26.731699 1.194529 10.729627 -9.528679 3.254251 -2.974609 66.778732 18.505575 19.958490 -5.027694 2.173648 5.254103 31.359819 1.345198 -3.773230 19.284121 -24.147261 -4.772616 -1.665410 51.592392 -32.314770 11.877855 -34.345181 44.158672 0.000000 0.000000 0.000000 -28.260500 -12.664061 -13.672834 -0.225522 31.927576 -3.077290 -1.494891 -15.394863 5.073484 0.000000 0.000000 0.000000 
40.376865 83.883621 5.310600 -1.713640 6.323955 2.456094 -4.238361 -2.534771 -3.359534 9.878577 0.581649 -1.140121 -3.554190 11.969357 -5.132301 7.459168 -24.572350 -5.470066 -3.594252 5.170368 0.069572 -75.785912 24.733587 -13.417951 7.376152 2.908073 -14.166748 -26.677853 1.283492 10.695910 -9.473783 3.247404 -2.956865 66.773666 18.236012 19.881058 -5.151860 2.113245 5.249734 31.370445 1.308934 -3.705606 18.881353 -24.335835 -4.684585 -1.422055 51.993725 -32.722424 12.551432 -34.362392 44.356998 0.000000 0.000000 0.000000 -28.287277 -12.543332 -13.493073 -0.069872 30.644857 -3.167524 -22.389650 -19.153229 9.427038 0.000000 0.000000 0.000000 
41.386059 84.085777 5.321574 -2.016316 6.375094 2.513077 -4.139315 -2.503138 -3.380749 10.050043 0.537352 -1.145138 -3.471575 12.003068 -5.214313 7.461555 -24.603500 -5.533612 -3.508727 5.106808 -0.040354 -75.895622 25.018623 -13.445975 7.285205 2.989635 -14.078768 -26.636452 1.360353 10.661915 -9.421246 3.242198 -2.937065 66.793472 17.967682 19.804060 -5.274546 2.056430 5.238928 31.380440 1.275335 -3.639966 18.479351 -24.501286 -4.636132 -1.196147 52.314041 -33.070854 13.188952 -34.327713 44.525009 0.000000 0.000000 0.000000 -28.356544 -12.177361 -13.304426 -0.015891 30.158310 -3.206060 4.055571 -11.076546 3.887802 0.000000 0.000000 0.000000 
42.374676 84.299675 5.330072 -2.314406 6.417153 2.564812 -4.046097 -2.468358 -3.396580 10.218012 0.497059 -1.148584 -3.397391 12.040297 -5.293611 7.467184 -24.627569 -5.596628 -3.423612 5.043537 -0.147797 -75.986313 25.323624 -13.476698 7.206988 3.058015 -13.998685 -26.607046 1.425068 10.627579 -9.371067 3.238304 -2.915539 66.836586 17.708408 19.727800 -5.397077 2.000782 5.222637 31.390064 1.242457 -3.574938 18.093863 -24.579906 -4.621892 -1.038712 52.454540 -33.271397 13.822939 -34.268471 44.599266 0.000000 0.000000 0.000000 -28.328743 -12.028129 -13.125571 0.110695 29.249884 -3.284382 3.734947 -9.470539 3.850989 0.000000 0.000000 0.000000 
